<svg width="46" height="46" viewBox="0 0 46 46" fill="none" xmlns="http://www.w3.org/2000/svg">
<circle cx="23" cy="23" r="22.5" fill="#0A66E6" fill-opacity="0.3" stroke="#0A66E6"/>
<path d="M29.1334 23C29.1334 26.3874 26.3874 29.1334 23 29.1334C19.6127 29.1334 16.8667 26.3874 16.8667 23C16.8667 19.6127 19.6127 16.8667 23 16.8667C26.3874 16.8667 29.1334 19.6127 29.1334 23Z" fill="#0A66E6"/>
<path fill-rule="evenodd" clip-rule="evenodd" d="M32.2 22.9998C32.2 28.0808 28.0811 32.1998 23 32.1998C17.919 32.1998 13.8 28.0808 13.8 22.9998C13.8 17.9188 17.919 13.7998 23 13.7998C28.0811 13.7998 32.2 17.9188 32.2 22.9998ZM23 29.1331C26.3874 29.1331 29.1334 26.3872 29.1334 22.9998C29.1334 19.6125 26.3874 16.8665 23 16.8665C19.6127 16.8665 16.8667 19.6125 16.8667 22.9998C16.8667 26.3872 19.6127 29.1331 23 29.1331Z" fill="#F5F9FE"/>
</svg>
