<svg width="64" height="64" viewBox="0 0 64 64" fill="none" xmlns="http://www.w3.org/2000/svg">
<rect width="64" height="64" rx="32" fill="#F5F9FE"/>
<path d="M45.3331 34.5332V37.5866C45.3331 42.4399 42.4398 45.3332 37.5864 45.3332H26.4131C23.0131 45.3332 20.5598 43.9066 19.4131 41.3733L19.5598 41.2666L26.1198 36.8666C27.1864 36.1466 28.6931 36.2266 29.6398 37.0532L30.0931 37.4266C31.1331 38.3199 32.8131 38.3199 33.8531 37.4266L39.3998 32.6666C40.4398 31.7732 42.1198 31.7732 43.1598 32.6666L45.3331 34.5332Z" fill="#0A66E6"/>
<path opacity="0.4" d="M43.9603 26.6665H40.0403C38.347 26.6665 37.3337 25.6532 37.3337 23.9598V20.0398C37.3337 19.5065 37.4403 19.0532 37.627 18.6665C37.6137 18.6665 37.6003 18.6665 37.587 18.6665H26.4137C21.5603 18.6665 18.667 21.5598 18.667 26.4132V37.5865C18.667 39.0398 18.9203 40.3065 19.4137 41.3732L19.5603 41.2665L26.1203 36.8665C27.187 36.1465 28.6937 36.2265 29.6403 37.0532L30.0937 37.4265C31.1337 38.3198 32.8137 38.3198 33.8537 37.4265L39.4003 32.6665C40.4403 31.7732 42.1203 31.7732 43.1603 32.6665L45.3337 34.5332V26.4132C45.3337 26.3998 45.3337 26.3865 45.3337 26.3732C44.947 26.5598 44.4937 26.6665 43.9603 26.6665Z" fill="#0A66E6"/>
<path d="M28.0005 29.8398C29.7531 29.8398 31.1738 28.4191 31.1738 26.6665C31.1738 24.9139 29.7531 23.4932 28.0005 23.4932C26.2479 23.4932 24.8271 24.9139 24.8271 26.6665C24.8271 28.4191 26.2479 29.8398 28.0005 29.8398Z" fill="#0A66E6"/>
<path d="M43.9597 26.6668H40.0397C38.3463 26.6668 37.333 25.6535 37.333 23.9602V20.0402C37.333 18.3468 38.3463 17.3335 40.0397 17.3335H43.9597C45.653 17.3335 46.6663 18.3468 46.6663 20.0402V23.9602C46.6663 25.6535 45.653 26.6668 43.9597 26.6668ZM44.253 22.2535C44.093 22.0935 43.8797 22.0135 43.6663 22.0135C43.453 22.0135 43.2397 22.0935 43.0797 22.2535L42.8397 22.4935V19.5068C42.8397 19.0402 42.4663 18.6668 41.9997 18.6668C41.533 18.6668 41.1597 19.0402 41.1597 19.5068V22.4935L40.9197 22.2535C40.5997 21.9335 40.0663 21.9335 39.7463 22.2535C39.4263 22.5735 39.4263 23.1068 39.7463 23.4268L41.413 25.0935C41.4797 25.1602 41.573 25.2135 41.6663 25.2535C41.693 25.2668 41.7197 25.2668 41.7463 25.2802C41.813 25.3068 41.8797 25.3202 41.9597 25.3202C41.9863 25.3202 42.013 25.3202 42.0397 25.3202C42.133 25.3202 42.213 25.3068 42.3063 25.2668C42.3197 25.2668 42.3197 25.2668 42.333 25.2668C42.4263 25.2268 42.5063 25.1735 42.573 25.1068C42.5863 25.0935 42.5863 25.0935 42.5997 25.0935L44.2663 23.4268C44.5863 23.1068 44.5863 22.5735 44.253 22.2535Z" fill="#0A66E6"/>
</svg>
