<svg width="33" height="32" viewBox="0 0 33 32" fill="none" xmlns="http://www.w3.org/2000/svg">
<path d="M16.4129 15.4937C16.3729 15.4937 16.3462 15.4937 16.3062 15.4937C16.2395 15.4803 16.1462 15.4803 16.0662 15.4937C12.1995 15.3737 9.27954 12.3337 9.27954 8.58699C9.27954 4.77366 12.3862 1.66699 16.1995 1.66699C20.0129 1.66699 23.1195 4.77366 23.1195 8.58699C23.1062 12.3337 20.1729 15.3737 16.4529 15.4937C16.4395 15.4937 16.4262 15.4937 16.4129 15.4937ZM16.1995 3.66699C13.4929 3.66699 11.2795 5.88033 11.2795 8.58699C11.2795 11.2537 13.3595 13.4003 16.0129 13.4937C16.0795 13.4803 16.2662 13.4803 16.4395 13.4937C19.0529 13.3737 21.1062 11.227 21.1195 8.58699C21.1195 5.88033 18.9062 3.66699 16.1995 3.66699Z" fill="#718096"/>
<path d="M16.4262 30.0663C13.8129 30.0663 11.1862 29.3997 9.19955 28.0663C7.34622 26.8397 6.33289 25.1597 6.33289 23.333C6.33289 21.5063 7.34622 19.813 9.19955 18.573C13.1996 15.9197 19.6796 15.9197 23.6529 18.573C25.4929 19.7997 26.5196 21.4797 26.5196 23.3063C26.5196 25.133 25.5062 26.8263 23.6529 28.0663C21.6529 29.3997 19.0396 30.0663 16.4262 30.0663ZM10.3062 20.253C9.02622 21.1063 8.33289 22.1997 8.33289 23.3463C8.33289 24.4797 9.03955 25.573 10.3062 26.413C13.6262 28.6397 19.2262 28.6397 22.5462 26.413C23.8262 25.5597 24.5196 24.4663 24.5196 23.3197C24.5196 22.1863 23.8129 21.093 22.5462 20.253C19.2262 18.0397 13.6262 18.0397 10.3062 20.253Z" fill="#718096"/>
</svg>
