<svg width="33" height="32" viewBox="0 0 33 32" fill="none" xmlns="http://www.w3.org/2000/svg">
<path d="M16.6001 30.3333C9.61347 30.3333 3.93347 24.6533 3.93347 17.6667C3.93347 10.68 9.61347 5 16.6001 5C23.5868 5 29.2668 10.68 29.2668 17.6667C29.2668 24.6533 23.5868 30.3333 16.6001 30.3333ZM16.6001 7C10.7201 7 5.93347 11.7867 5.93347 17.6667C5.93347 23.5467 10.7201 28.3333 16.6001 28.3333C22.4801 28.3333 27.2668 23.5467 27.2668 17.6667C27.2668 11.7867 22.4801 7 16.6001 7Z" fill="#718096"/>
<path d="M16.6001 18.3337C16.0534 18.3337 15.6001 17.8803 15.6001 17.3337V10.667C15.6001 10.1203 16.0534 9.66699 16.6001 9.66699C17.1468 9.66699 17.6001 10.1203 17.6001 10.667V17.3337C17.6001 17.8803 17.1468 18.3337 16.6001 18.3337Z" fill="#718096"/>
<path d="M20.6001 3.66699H12.6001C12.0534 3.66699 11.6001 3.21366 11.6001 2.66699C11.6001 2.12033 12.0534 1.66699 12.6001 1.66699H20.6001C21.1468 1.66699 21.6001 2.12033 21.6001 2.66699C21.6001 3.21366 21.1468 3.66699 20.6001 3.66699Z" fill="#718096"/>
</svg>
