<svg width="32" height="32" viewBox="0 0 32 32" fill="none" xmlns="http://www.w3.org/2000/svg">
<path d="M29.3333 30.333H2.66663C2.11996 30.333 1.66663 29.8797 1.66663 29.333C1.66663 28.7863 2.11996 28.333 2.66663 28.333H29.3333C29.88 28.333 30.3333 28.7863 30.3333 29.333C30.3333 29.8797 29.88 30.333 29.3333 30.333Z" fill="#448AEC"/>
<path d="M28 30.3333H4C3.45333 30.3333 3 29.88 3 29.3333V20C3 12.8267 8.82667 7 16 7C23.1733 7 29 12.8267 29 20V29.3333C29 29.88 28.5467 30.3333 28 30.3333ZM5 28.3333H27V20C27 13.9333 22.0667 9 16 9C9.93333 9 5 13.9333 5 20V28.3333Z" fill="#448AEC"/>
<path d="M16 5.00033C15.4533 5.00033 15 4.54699 15 4.00033V2.66699C15 2.12033 15.4533 1.66699 16 1.66699C16.5467 1.66699 17 2.12033 17 2.66699V4.00033C17 4.54699 16.5467 5.00033 16 5.00033Z" fill="#448AEC"/>
<path d="M6.66655 7.66691C6.41321 7.66691 6.15988 7.57358 5.95988 7.37358L4.62655 6.04024C4.23988 5.65358 4.23988 5.01358 4.62655 4.62691C5.01321 4.24025 5.65321 4.24025 6.03988 4.62691L7.37321 5.96025C7.75988 6.34691 7.75988 6.98691 7.37321 7.37358C7.17321 7.57358 6.91988 7.66691 6.66655 7.66691Z" fill="#448AEC"/>
<path d="M25.3332 7.66691C25.0799 7.66691 24.8265 7.57358 24.6265 7.37358C24.2399 6.98691 24.2399 6.34691 24.6265 5.96025L25.9599 4.62691C26.3465 4.24025 26.9865 4.24025 27.3732 4.62691C27.7599 5.01358 27.7599 5.65358 27.3732 6.04024L26.0399 7.37358C25.8399 7.57358 25.5865 7.66691 25.3332 7.66691Z" fill="#448AEC"/>
</svg>
