<svg width="33" height="32" viewBox="0 0 33 32" fill="none" xmlns="http://www.w3.org/2000/svg">
<path d="M15.1601 24.2271C14.9334 24.2271 14.7201 24.1871 14.4934 24.1071C13.7601 23.8271 13.2801 23.1471 13.2801 22.3605V17.9605H11.9734C11.2268 17.9605 10.5734 17.5338 10.2668 16.8671C9.96009 16.1871 10.0801 15.4271 10.5734 14.8671L16.2534 8.41381C16.7734 7.82715 17.5734 7.62715 18.3068 7.90715C19.0401 8.18715 19.5201 8.86715 19.5201 9.65381V14.0538H20.8401C21.5868 14.0538 22.2401 14.4805 22.5468 15.1471C22.8534 15.8271 22.7334 16.5871 22.2401 17.1471L16.5601 23.6005C16.1868 24.0005 15.6801 24.2271 15.1601 24.2271ZM12.2668 15.9605H14.2801C14.8268 15.9605 15.2801 16.4138 15.2801 16.9605V22.0005L20.5334 16.0405H18.5201C17.9734 16.0405 17.5201 15.5871 17.5201 15.0405V10.0005L12.2668 15.9605Z" fill="#718096"/>
<path d="M16.3601 30.3337C8.46673 30.3337 2.02673 23.907 2.02673 16.0003C2.02673 8.09366 8.46673 1.66699 16.3601 1.66699C24.2534 1.66699 30.6934 8.09366 30.6934 16.0003C30.6934 23.907 24.2667 30.3337 16.3601 30.3337ZM16.3601 3.66699C9.56007 3.66699 4.02673 9.20033 4.02673 16.0003C4.02673 22.8003 9.56007 28.3337 16.3601 28.3337C23.1601 28.3337 28.6934 22.8003 28.6934 16.0003C28.6934 9.20033 23.1601 3.66699 16.3601 3.66699Z" fill="#718096"/>
</svg>
